<svg xmlns="http://www.w3.org/2000/svg" viewBox="0 0 91.41 91.79"><title>twitter-icon</title><g id="Lag_2" data-name="Lag 2"><g id="Lag_2-2" data-name="Lag 2"><path d="M0,45.82c0-7.16-.11-14.32,0-21.48C.31,10.48,10.14.42,24,.18q21.48-.37,43,0C81.42.41,91.31,10.65,91.37,25q.09,21,0,42c-.05,14.28-10.18,24.54-24.54,24.69q-21.22.22-42.47,0C10.25,91.52.28,81.44.06,67.31,0,60.15,0,53,0,45.82ZM16,66.84a1.18,1.18,0,0,0,.56.58c20.86,10.27,46,1.45,53.21-22,2-6.41.62-14.13,7.27-19.06l-5.25,1.27L75,21.86c-5.74,1.7-5.74,1.7-11.76-.65A13.58,13.58,0,0,0,44.38,32.38c-.14,1.09-.38,2.17-.61,3.5C33.13,35.31,25.42,29.38,17.88,23c-3,6.5-1.14,11.69,3.55,16.76l-5-.85c-.26,6.37,3.4,9.63,9.27,12.32l-4.3.81-.77,1.48,11.79,8.49Z"/></g></g></svg>