<svg xmlns="http://www.w3.org/2000/svg" width="140.43" height="197.194" viewBox="0 0 140.43 197.194">
  <path id="Path_5" data-name="Path 5" d="M184.461,555.939c-6.731-5.549-13.55-11-20.175-16.668-14.146-12.112-28.164-24.372-42.329-36.463a7.705,7.705,0,0,0-4.6-1.651c-16.9-.116-33.791-.069-50.687-.075-7.322,0-10.93-3.606-10.932-10.922q-.007-33.27,0-66.538c0-7.052,3.575-10.627,10.583-10.629,17.352,0,34.705.039,52.057-.072a7.293,7.293,0,0,0,4.34-1.63q28.782-24.7,57.414-49.582c3.164-2.743,6.606-3.9,10.572-2.1s5.436,5.073,5.435,9.3q-.036,88.443.023,176.887c.005,5.07-2.421,8.162-6.771,10.15Z" transform="translate(-55.734 -358.745)" fill="#2e2e2e"/>
</svg>
