<svg xmlns="http://www.w3.org/2000/svg" width="252.77" height="197.194" viewBox="0 0 252.77 197.194">
  <g id="Group_1" data-name="Group 1" transform="translate(-55.734 -63.015)">
    <path id="Path_1" data-name="Path 1" d="M184.461,260.209c-6.731-5.549-13.55-11-20.175-16.668-14.146-12.112-28.164-24.373-42.329-36.463a7.713,7.713,0,0,0-4.6-1.652c-16.9-.116-33.791-.068-50.687-.074-7.322,0-10.93-3.607-10.932-10.923q-.007-33.269,0-66.538c0-7.051,3.575-10.627,10.583-10.628,17.352,0,34.705.039,52.057-.072a7.293,7.293,0,0,0,4.34-1.63q28.782-24.7,57.414-49.582c3.164-2.744,6.606-3.9,10.572-2.1s5.436,5.073,5.435,9.295q-.036,88.443.023,176.887c.005,5.07-2.421,8.161-6.771,10.15Z" fill="#2e2e2e"/>
    <path id="Path_2" data-name="Path 2" d="M308.5,168.226c-.294,28.61-11.141,59.768-32.568,87.234-3.044,3.9-7.036,5.176-11.079,3.613a8.594,8.594,0,0,1-5.7-9.523,16.035,16.035,0,0,1,3.2-6.465c11.077-14.429,19.215-30.327,23.523-47.993,10.3-42.231,2.1-80.707-24.17-115.321-2.115-2.787-3.366-5.661-2.4-9.113a8.614,8.614,0,0,1,6.741-6.479,8.8,8.8,0,0,1,9.288,3.235,146.87,146.87,0,0,1,17.386,27.118C303.245,115.791,308.558,138.284,308.5,168.226Z" fill="#2e2e2e"/>
    <path id="Path_3" data-name="Path 3" d="M274.96,161.851a118.826,118.826,0,0,1-22.4,69.313c-2.352,3.311-5.326,5.369-9.47,4.7-7.079-1.149-10.143-8.7-5.926-14.695a99.122,99.122,0,0,0,12.626-23.223q18.107-50.058-11.7-94.225a16.757,16.757,0,0,1-2.537-4.773,8.982,8.982,0,0,1,4.974-10.466,9.09,9.09,0,0,1,11.253,2.905,112.864,112.864,0,0,1,20.238,44.7c1.714,8.445,2.439,17.089,3.611,25.644Z" fill="#2e2e2e"/>
    <path id="Path_4" data-name="Path 4" d="M239.317,160.182c-.1,17.437-4.4,32.088-13.054,45.438a9.021,9.021,0,0,1-9.915,4.156,8.588,8.588,0,0,1-6.889-7.577,11.315,11.315,0,0,1,1.484-6.445,62.952,62.952,0,0,0,9.744-39.085,61.489,61.489,0,0,0-9.6-28.433c-2.627-4.165-2.458-8.095.341-11.39a9.02,9.02,0,0,1,14.585.767,77.661,77.661,0,0,1,12.647,34.281C239.058,155.146,239.183,158.431,239.317,160.182Z" fill="#2e2e2e"/>
  </g>
</svg>
