<svg xmlns="http://www.w3.org/2000/svg" viewBox="0 0 91.36 91.77"><title>facebook-icon</title><g id="Lag_2" data-name="Lag 2"><g id="Lag_2-2" data-name="Lag 2"><path d="M52.36,45.72c-.91-14.76-1.29-15.84,13.15-16V17.09C57.37,17,49,15,42.17,21.91c-6.57,6.66-4.22,15.29-5,23.71H25.88V59.26h11V91.39c-5.65,0-11.19.66-16.52-.14C8,89.41.15,79.84.07,67.29q-.13-21.24,0-42.48C.15,10.9,9.86.56,23.66.25q22-.49,44,0c14,.33,23.58,10.47,23.66,24.42s.09,28,0,42c-.09,15.1-10,24.94-25.07,25.1-4.47,0-9,0-13.84,0V59.3H62.68l2.07-13.58Z"/></g></g></svg>