<svg xmlns="http://www.w3.org/2000/svg" viewBox="0 0 91.74 91.86"><title>insta-icon</title><g id="Lag_2" data-name="Lag 2"><g id="Lag_3" data-name="Lag 3"><path d="M0,45.45c0-7.33-.08-14.66,0-22C.21,10.48,9.58.54,22.59.26c15.47-.33,31-.36,46.44,0C82,.59,91.23,10,91.5,23q.48,23,0,45.94c-.28,13.13-9.91,22.55-23,22.74q-22.73.35-45.45,0C9.6,91.49.13,81.51,0,67.92,0,60.43,0,52.94,0,45.45Zm12.05.63c0,5.16-.09,10.31,0,15.47.22,10.28,7.27,17.77,17.48,18.06Q45.8,80,62,79.6c9.7-.27,16.87-7,17.26-16.59.46-11.29.47-22.63,0-33.92-.38-9.85-7.7-16.62-17.57-16.81Q46,12,30.31,12.27c-10.87.2-18,7.46-18.21,18.34C12,35.76,12.08,40.92,12.08,46.08Z"/><path d="M73.71,30c-.14-7.06-5.07-11.85-12.13-12q-15.73-.25-31.48,0c-7.3.11-12,5-12.19,12.37-.1,5.16,0,10.33,0,15.49s-.08,10.33,0,15.49c.14,7.42,4.79,12.33,12.1,12.44q15.73.24,31.48,0C68.57,73.74,73.56,69,73.7,62Q74,46,73.71,30ZM45.55,63.11A16.91,16.91,0,0,1,28.63,45.93,17.19,17.19,0,1,1,63,46,16.94,16.94,0,0,1,45.55,63.11Zm18.9-31.53a3.68,3.68,0,1,1,3.68-3.68A3.68,3.68,0,0,1,64.45,31.58Z"/><path d="M57.23,45.7a11.48,11.48,0,0,1-11,11.8A11.76,11.76,0,0,1,34.25,46a11.55,11.55,0,0,1,11.4-11.48A11.37,11.37,0,0,1,57.23,45.7Z"/></g></g></svg>