<svg xmlns="http://www.w3.org/2000/svg" viewBox="0 0 91.31 91.9"><title>youtube-icon</title><g id="Lag_2" data-name="Lag 2"><g id="Lag_4" data-name="Lag 4"><path d="M91.28,46c0,7.33.09,14.66,0,22C91,81.13,81.13,91.42,67.88,91.68c-14.81.29-29.64.31-44.46,0C9.93,91.36.14,81,.06,67.44Q-.08,46.2.05,25C.1,10.71,9.67.56,23.93.24c14.48-.33,29-.3,43.46,0C81.49.5,91.19,10.79,91.28,25,91.32,32,91.28,39,91.28,46Zm-45.94,21c5.33,0,10.66.08,16,0,8.1-.14,13.44-5.34,13.69-13.41.15-5,.14-10,0-15C74.79,30.44,69.45,25.06,61.45,25Q45.72,24.79,30,25c-7.85.08-13.29,5.2-13.67,12.95-.25,5.32-.24,10.66,0,16,.34,7.78,5.75,12.89,13.55,13C35,67,40.18,66.94,45.34,66.94Z"/><path d="M39.56,55.55V36.39l15.91,9.54Z"/></g></g></svg>